A young couple go to a remote and deserted coral island for a camping holiday, only to find that the island is inhabited by a ghost seeking retribution for a past outrage.

Format                           : MPEG-4
Format profile                   : Base Media / Version 2
Codec ID                         : mp42
File size                        : 348 MiB
Duration                         : 1h 23mn
Overall bit rate                 : 581 Kbps

Video
ID                               : 1
Format                           : AVC
Format/Info                      : Advanced Video Codec
Format profile                   : Baseline@L2.1
Format settings, CABAC           : No
Format settings, ReFrames        : 2 frames
Codec ID                         : avc1
Codec ID/Info                    : Advanced Video Coding
Duration                         : 1h 23mn
Bit rate mode                    : Variable
Bit rate                         : 450 Kbps
Width                            : 480 pixels
Height                           : 272 pixels
Display aspect ratio             : 16:9
Frame rate mode                  : Constant
Frame rate                       : 25.000 fps
Color space                      : YUV
Chroma subsampling               : 4:2:0
Bit depth                        : 8 bits
Scan type                        : Progressive
Bits/(Pixel*Frame)               : 0.138
Stream size                      : 269 MiB (77%)
Writing library                  : x264 core 116
Encoded date                     : UTC 2011-09-12 14:38:37
Tagged date                      : UTC 2011-09-12 14:49:43
Material_Duration                : 5021800
Material_StreamSize              : 282468532
Material_FrameCount              : 125545
Color primaries                  : BT.601-6 525, BT.1358 525, BT.1700 NTSC, SMPTE 170M
Transfer characteristics         : BT.709-5, BT.1361
Matrix coefficients              : BT.601-6 525, BT.1358 525, BT.1700 NTSC, SMPTE 170M

Audio
ID                               : 2
Format                           : AAC
Format/Info                      : Advanced Audio Codec
Format profile                   : LC
Codec ID                         : 40
Duration                         : 1h 23mn
Bit rate mode                    : Variable
Bit rate                         : 128 Kbps
Maximum bit rate                 : 162 Kbps
Channel(s)                       : 2 channels
Channel positions                : Front: L R
Sampling rate                    : 48.0 KHz
Compression mode                 : Lossy
Stream size                      : 76.6 MiB (22%)
Language                         : English
Encoded date                     : UTC 2011-09-12 14:38:37
Tagged date                      : UTC 2011-09-12 14:49:42
Material_Duration                : 5021973
Material_StreamSize              : 80332797